<svg xmlns="http://www.w3.org/2000/svg" width="81" height="81" fill="none"><path fill="#fff" fill-rule="evenodd" d="M40.662 1.212c21.607 0 39.124 17.516 39.124 39.124 0 21.607-17.517 39.124-39.124 39.124-21.608 0-39.124-17.517-39.124-39.124 0-21.608 17.516-39.124 39.124-39.124Z" clip-rule="evenodd"/><path fill="#E1E1E1" fill-rule="evenodd" d="M40.662 1.212c21.607 0 39.124 17.516 39.124 39.124 0 21.607-17.517 39.124-39.124 39.124-21.608 0-39.124-17.517-39.124-39.124 0-21.608 17.516-39.124 39.124-39.124Z" clip-rule="evenodd"/><path fill="#fff" d="M47 35v-4h-4a4 4 0 0 0-4 4v4h-4v4h4v10h4V43h4v-4h-4v-4h4Z"/></svg>