<svg xmlns="http://www.w3.org/2000/svg" width="81" height="81" fill="none"><path fill="#fff" fill-rule="evenodd" d="M40.662 1.212c21.607 0 39.124 17.516 39.124 39.124 0 21.607-17.517 39.124-39.124 39.124-21.608 0-39.124-17.517-39.124-39.124 0-21.608 17.516-39.124 39.124-39.124Z" clip-rule="evenodd"/><path fill="#E1E1E1" fill-rule="evenodd" d="M40.662 1.212c21.607 0 39.124 17.516 39.124 39.124 0 21.607-17.517 39.124-39.124 39.124-21.608 0-39.124-17.517-39.124-39.124 0-21.608 17.516-39.124 39.124-39.124Z" clip-rule="evenodd"/><path fill="#fff" fill-rule="evenodd" d="M33 30h15c1.65 0 3 1.35 3 3v15c0 1.65-1.35 3-3 3H33c-1.65 0-3-1.35-3-3V33c0-1.65 1.35-3 3-3Zm11 10.5c0-1.93-1.57-3.5-3.5-3.5S37 38.57 37 40.5s1.57 3.5 3.5 3.5 3.5-1.57 3.5-3.5ZM33 48v-9h1.181c-.118.491-.18.995-.181 1.5a6.5 6.5 0 1 0 13 0 6.451 6.451 0 0 0-.181-1.5H48v9H33Zm11-11h4v-4h-4v4Z" clip-rule="evenodd"/></svg>