<svg width="209" height="90" viewBox="0 0 209 90" fill="none" xmlns="http://www.w3.org/2000/svg">
<g opacity="0.2" clip-path="url(#clip0_80369_216)">
<path d="M5 38.2284V42.6741H9.25322V38.2284H5Z" fill="black"/>
<path d="M25.1536 23.817C22.4538 23.817 20.2717 25.0395 18.9033 26.8178H18.7553V16H15.2418V42.674H18.7553V33.5234C18.7553 29.8557 21.0484 27.2253 24.414 27.2253C27.5946 27.2253 29.4438 29.5964 29.4438 32.7824V42.674H32.9574V32.1526C32.9574 27.0771 29.8137 23.817 25.1536 23.817Z" fill="black"/>
<path d="M51.0591 24.3357H42.7378V17.8524H39.2242V24.3357H35.8956V27.744H39.2242V38.0802C39.2242 41.044 40.8885 42.6741 43.8843 42.6741H51.0591V39.2287H44.587C43.4035 39.2287 42.7378 38.5619 42.7378 37.4134V27.744H51.0591V24.3357Z" fill="black"/>
<path d="M76.1581 23.854C73.3471 23.854 71.2023 25.2248 70.0188 27.4106H69.9078C68.8352 25.2618 66.8381 23.854 64.1013 23.854C61.6603 23.854 59.8109 25.1506 58.7016 26.966H58.5535V24.3356H55.188V42.674H58.7016V33.264C58.7016 29.8186 60.5135 27.2994 63.2507 27.2253C65.8393 27.1512 67.3558 29.0036 67.3558 31.7821V42.674H70.8694V32.9676C70.8694 28.8554 73.3104 27.2253 75.4185 27.2253C77.9704 27.2253 79.4869 29.0036 79.4869 31.7821V42.674H83.0001V31.4117C83.0001 26.966 80.4852 23.854 76.1581 23.854Z" fill="black"/>
<path d="M87.7619 37.932C87.7619 40.9328 89.4632 42.674 92.6067 42.674H96.0832V39.2657H93.1245C91.9409 39.2657 91.2751 38.5988 91.2751 37.4504V16H87.7619V37.932Z" fill="black"/>
<path d="M55.0178 50.0079H54.8697C53.4988 48.1664 51.2761 46.8774 48.3119 46.8406C42.8653 46.7669 38.975 50.7813 38.975 56.4531C38.975 62.1617 42.9394 66.1763 48.2748 66.1026C51.3128 66.0656 53.4988 64.703 54.8697 62.7509H55.0178V65.5867H58.501V47.3562H55.0178V50.0079ZM48.7934 62.7143C44.9402 62.7143 42.4948 59.915 42.4948 56.4531C42.4948 52.9911 44.9402 50.1921 48.7934 50.1921C52.5356 50.1921 54.9811 52.9911 54.9811 56.4531C54.9811 59.8784 52.5356 62.7143 48.7934 62.7143Z" fill="black"/>
<path d="M81.5015 53.9855C80.6492 49.8606 76.9812 46.8406 72.1648 46.8406C66.3479 46.8406 62.4576 51.076 62.4576 56.4531C62.4576 61.8301 66.3479 66.1026 72.1648 66.1026C76.9812 66.1026 80.6492 63.0088 81.5015 58.847H77.8336C77.0926 61.1673 74.9066 62.7509 72.2019 62.7509C68.4226 62.7509 65.977 59.915 65.977 56.4531C65.977 52.9911 68.4226 50.1921 72.2019 50.1921C75.0175 50.1921 77.0926 51.8494 77.8336 53.9855H81.5015Z" fill="black"/>
<path d="M100.319 50.0079H100.17C98.7995 48.1664 96.5763 46.8774 93.6122 46.8406C88.1658 46.7669 84.2755 50.7813 84.2755 56.4531C84.2755 62.1617 88.24 66.1763 93.575 66.1026C96.6134 66.0656 98.7995 64.703 100.17 62.7509H100.319V65.5867H103.801V47.3562H100.319V50.0079ZM94.094 62.7143C90.2404 62.7143 87.7953 59.915 87.7953 56.4531C87.7953 52.9911 90.2404 50.1921 94.094 50.1921C97.8362 50.1921 100.281 52.9911 100.281 56.4531C100.281 59.8784 97.8362 62.7143 94.094 62.7143Z" fill="black"/>
<path d="M123.801 50.192H123.653C122.282 48.24 119.984 46.8773 117.057 46.8405C111.722 46.7668 107.758 50.7813 107.758 56.4899C107.758 62.1617 111.648 66.1762 117.095 66.1026C119.984 66.0655 122.282 64.7766 123.616 62.9351H123.801V65.5866H127.284V39.0695H123.801V50.192ZM117.576 62.7508C113.723 62.7508 111.278 59.952 111.278 56.4899C111.278 53.0279 113.723 50.2288 117.576 50.2288C121.319 50.2288 123.764 53.0647 123.764 56.4899C123.764 59.952 121.319 62.7508 117.576 62.7508Z" fill="black"/>
<path d="M140.544 46.8406C134.913 46.8406 131.059 51.1496 131.059 56.4899C131.059 61.6828 134.69 66.1026 140.618 66.1026C144.916 66.1026 148.362 63.7823 149.585 59.915H145.917C145.102 61.6462 143.138 62.7509 140.767 62.7509C137.432 62.7509 135.061 60.5412 134.801 57.7053H149.955C150.437 51.6284 146.621 46.8406 140.544 46.8406ZM140.47 50.1921C143.397 50.1921 145.583 51.9967 146.139 54.6116H134.876C135.394 52.0335 137.58 50.1921 140.47 50.1921Z" fill="black"/>
<path d="M174.926 46.8773C172.11 46.8773 169.961 48.24 168.776 50.4129H168.664C167.59 48.2768 165.589 46.8773 162.847 46.8773C160.402 46.8773 158.55 48.1664 157.438 49.971H157.29V47.3561H153.918V65.5866H157.438V56.232C157.438 52.8069 159.254 50.3025 161.996 50.2288C164.589 50.1552 166.108 51.9966 166.108 54.7588V65.5866H169.628V55.9374C169.628 51.8493 172.073 50.2288 174.185 50.2288C176.742 50.2288 178.261 51.9966 178.261 54.7588V65.5866H181.78V54.3905C181.78 49.971 179.261 46.8773 174.926 46.8773Z" fill="black"/>
<path d="M194.381 62.6771L188.083 47.3561H184.192L192.566 67.3179L192.529 67.3915C191.936 68.9014 191.269 69.4539 189.639 69.4539H185.304V72.9525H189.639C192.825 72.9525 194.529 71.5163 195.715 68.4225L203.792 47.3561H200.198L194.381 62.6771Z" fill="black"/>
</g>
<g opacity="0.2" clip-path="url(#clip1_80369_216)">
<path d="M5 38.2284V42.6741H9.25322V38.2284H5Z" fill="black"/>
<path d="M25.1536 23.817C22.4538 23.817 20.2717 25.0395 18.9033 26.8178H18.7553V16H15.2418V42.674H18.7553V33.5234C18.7553 29.8557 21.0484 27.2253 24.414 27.2253C27.5946 27.2253 29.4438 29.5964 29.4438 32.7824V42.674H32.9574V32.1526C32.9574 27.0771 29.8137 23.817 25.1536 23.817Z" fill="black"/>
<path d="M51.0591 24.3357H42.7378V17.8524H39.2242V24.3357H35.8956V27.744H39.2242V38.0802C39.2242 41.044 40.8885 42.6741 43.8843 42.6741H51.0591V39.2287H44.587C43.4035 39.2287 42.7378 38.5619 42.7378 37.4134V27.744H51.0591V24.3357Z" fill="black"/>
<path d="M76.1581 23.854C73.3471 23.854 71.2023 25.2248 70.0188 27.4106H69.9078C68.8352 25.2618 66.8381 23.854 64.1013 23.854C61.6603 23.854 59.8109 25.1506 58.7016 26.966H58.5535V24.3356H55.188V42.674H58.7016V33.264C58.7016 29.8186 60.5135 27.2994 63.2507 27.2253C65.8393 27.1512 67.3558 29.0036 67.3558 31.7821V42.674H70.8694V32.9676C70.8694 28.8554 73.3104 27.2253 75.4185 27.2253C77.9704 27.2253 79.4869 29.0036 79.4869 31.7821V42.674H83.0001V31.4117C83.0001 26.966 80.4852 23.854 76.1581 23.854Z" fill="black"/>
<path d="M87.7619 37.932C87.7619 40.9328 89.4632 42.674 92.6067 42.674H96.0832V39.2657H93.1245C91.9409 39.2657 91.2751 38.5988 91.2751 37.4504V16H87.7619V37.932Z" fill="black"/>
<path d="M55.0178 50.0079H54.8697C53.4988 48.1664 51.2761 46.8774 48.3119 46.8406C42.8653 46.7669 38.975 50.7813 38.975 56.4531C38.975 62.1617 42.9394 66.1763 48.2748 66.1026C51.3128 66.0656 53.4988 64.703 54.8697 62.7509H55.0178V65.5867H58.501V47.3562H55.0178V50.0079ZM48.7934 62.7143C44.9402 62.7143 42.4948 59.915 42.4948 56.4531C42.4948 52.9911 44.9402 50.1921 48.7934 50.1921C52.5356 50.1921 54.9811 52.9911 54.9811 56.4531C54.9811 59.8784 52.5356 62.7143 48.7934 62.7143Z" fill="black"/>
<path d="M81.5015 53.9855C80.6492 49.8606 76.9812 46.8406 72.1648 46.8406C66.3479 46.8406 62.4576 51.076 62.4576 56.4531C62.4576 61.8301 66.3479 66.1026 72.1648 66.1026C76.9812 66.1026 80.6492 63.0088 81.5015 58.847H77.8336C77.0926 61.1673 74.9066 62.7509 72.2019 62.7509C68.4226 62.7509 65.977 59.915 65.977 56.4531C65.977 52.9911 68.4226 50.1921 72.2019 50.1921C75.0175 50.1921 77.0926 51.8494 77.8336 53.9855H81.5015Z" fill="black"/>
<path d="M100.319 50.0079H100.17C98.7995 48.1664 96.5763 46.8774 93.6122 46.8406C88.1658 46.7669 84.2755 50.7813 84.2755 56.4531C84.2755 62.1617 88.24 66.1763 93.575 66.1026C96.6134 66.0656 98.7995 64.703 100.17 62.7509H100.319V65.5867H103.801V47.3562H100.319V50.0079ZM94.094 62.7143C90.2404 62.7143 87.7953 59.915 87.7953 56.4531C87.7953 52.9911 90.2404 50.1921 94.094 50.1921C97.8362 50.1921 100.281 52.9911 100.281 56.4531C100.281 59.8784 97.8362 62.7143 94.094 62.7143Z" fill="black"/>
<path d="M123.801 50.192H123.653C122.282 48.24 119.984 46.8773 117.057 46.8405C111.722 46.7668 107.758 50.7813 107.758 56.4899C107.758 62.1617 111.648 66.1762 117.095 66.1026C119.984 66.0655 122.282 64.7766 123.616 62.9351H123.801V65.5866H127.284V39.0695H123.801V50.192ZM117.576 62.7508C113.723 62.7508 111.278 59.952 111.278 56.4899C111.278 53.0279 113.723 50.2288 117.576 50.2288C121.319 50.2288 123.764 53.0647 123.764 56.4899C123.764 59.952 121.319 62.7508 117.576 62.7508Z" fill="black"/>
<path d="M140.544 46.8406C134.913 46.8406 131.059 51.1496 131.059 56.4899C131.059 61.6828 134.69 66.1026 140.618 66.1026C144.916 66.1026 148.362 63.7823 149.585 59.915H145.917C145.102 61.6462 143.138 62.7509 140.767 62.7509C137.432 62.7509 135.061 60.5412 134.801 57.7053H149.955C150.437 51.6284 146.621 46.8406 140.544 46.8406ZM140.47 50.1921C143.397 50.1921 145.583 51.9967 146.139 54.6116H134.876C135.394 52.0335 137.58 50.1921 140.47 50.1921Z" fill="black"/>
<path d="M174.926 46.8773C172.11 46.8773 169.961 48.24 168.776 50.4129H168.664C167.59 48.2768 165.589 46.8773 162.847 46.8773C160.402 46.8773 158.55 48.1664 157.438 49.971H157.29V47.3561H153.918V65.5866H157.438V56.232C157.438 52.8069 159.254 50.3025 161.996 50.2288C164.589 50.1552 166.108 51.9966 166.108 54.7588V65.5866H169.628V55.9374C169.628 51.8493 172.073 50.2288 174.185 50.2288C176.742 50.2288 178.261 51.9966 178.261 54.7588V65.5866H181.78V54.3905C181.78 49.971 179.261 46.8773 174.926 46.8773Z" fill="black"/>
<path d="M194.381 62.6771L188.083 47.3561H184.192L192.566 67.3179L192.529 67.3915C191.936 68.9014 191.269 69.4539 189.639 69.4539H185.304V72.9525H189.639C192.825 72.9525 194.529 71.5163 195.715 68.4225L203.792 47.3561H200.198L194.381 62.6771Z" fill="black"/>
</g>
<defs>
<clipPath id="clip0_80369_216">
<rect width="199" height="57" fill="white" transform="translate(5 16)"/>
</clipPath>
<clipPath id="clip1_80369_216">
<rect width="199" height="57" fill="white" transform="translate(5 16)"/>
</clipPath>
</defs>
</svg>
