<svg width="209" height="90" viewBox="0 0 209 90" fill="none" xmlns="http://www.w3.org/2000/svg">
<g clip-path="url(#clip0_80412_27)">
<path d="M5 38.2888V42.7466H9.25322V38.2888H5Z" fill="black"/>
<path d="M25.1536 23.8383C22.4538 23.8383 20.2717 25.0641 18.9033 26.8473H18.7553V16H15.2418V42.7466H18.7553V33.5711C18.7553 29.8934 21.0484 27.2559 24.414 27.2559C27.5946 27.2559 29.4438 29.6334 29.4438 32.8281V42.7466H32.9574V32.1966C32.9574 27.1073 29.8137 23.8383 25.1536 23.8383Z" fill="black"/>
<path d="M51.0591 24.3583H42.7377V17.8574H39.2242V24.3583H35.8956V27.776H39.2242V38.1403C39.2242 41.1121 40.8885 42.7467 43.8843 42.7467H51.0591V39.2919H44.587C43.4034 39.2919 42.7377 38.6232 42.7377 37.4717V27.776H51.0591V24.3583Z" fill="black"/>
<path d="M76.1582 23.8754C73.3471 23.8754 71.2023 25.2498 70.0188 27.4416H69.9078C68.8352 25.287 66.8381 23.8754 64.1013 23.8754C61.6604 23.8754 59.811 25.1755 58.7016 26.9958H58.5535V24.3583H55.1881V42.7466H58.7016V33.311C58.7016 29.8562 60.5135 27.3302 63.2507 27.2559C65.8394 27.1816 67.3558 29.039 67.3558 31.8251V42.7466H70.8694V33.0138C70.8694 28.8904 73.3104 27.2559 75.4185 27.2559C77.9704 27.2559 79.4869 29.039 79.4869 31.8251V42.7466H83.0001V31.4536C83.0001 26.9958 80.4853 23.8754 76.1582 23.8754Z" fill="black"/>
<path d="M87.7619 37.9917C87.7619 41.0007 89.4632 42.7466 92.6067 42.7466H96.0832V39.329H93.1245C91.9409 39.329 91.2751 38.6603 91.2751 37.5088V16H87.7619V37.9917Z" fill="black"/>
<path d="M55.0178 50.1004H54.8697C53.4988 48.2539 51.2761 46.9614 48.3119 46.9245C42.8653 46.8506 38.975 50.8759 38.975 56.5632C38.975 62.2873 42.9394 66.3128 48.2748 66.2389C51.3128 66.2018 53.4988 64.8355 54.8697 62.878H55.0178V65.7216H58.501V47.4414H55.0178V50.1004ZM48.7934 62.8413C44.9402 62.8413 42.4948 60.0345 42.4948 56.5632C42.4948 53.0918 44.9402 50.2851 48.7934 50.2851C52.5356 50.2851 54.9811 53.0918 54.9811 56.5632C54.9811 59.9978 52.5356 62.8413 48.7934 62.8413Z" fill="black"/>
<path d="M81.5015 54.0888C80.6492 49.9527 76.9813 46.9244 72.1648 46.9244C66.3479 46.9244 62.4576 51.1714 62.4576 56.5631C62.4576 61.9548 66.3479 66.2389 72.1648 66.2389C76.9813 66.2389 80.6492 63.1367 81.5015 58.9635H77.8336C77.0926 61.2902 74.9066 62.878 72.2019 62.878C68.4226 62.878 65.977 60.0344 65.977 56.5631C65.977 53.0917 68.4226 50.285 72.2019 50.285C75.0175 50.285 77.0926 51.9469 77.8336 54.0888H81.5015Z" fill="black"/>
<path d="M100.318 50.1004H100.17C98.7995 48.2539 96.5763 46.9614 93.6121 46.9245C88.1657 46.8506 84.2754 50.8759 84.2754 56.5632C84.2754 62.2873 88.24 66.3128 93.575 66.2389C96.6134 66.2018 98.7995 64.8355 100.17 62.878H100.318V65.7216H103.801V47.4414H100.318V50.1004ZM94.094 62.8413C90.2404 62.8413 87.7953 60.0345 87.7953 56.5632C87.7953 53.0918 90.2404 50.2851 94.094 50.2851C97.8362 50.2851 100.281 53.0918 100.281 56.5632C100.281 59.9978 97.8362 62.8413 94.094 62.8413Z" fill="black"/>
<path d="M123.801 50.285H123.653C122.282 48.3277 119.984 46.9613 117.057 46.9244C111.722 46.8505 107.758 50.8759 107.758 56.6C107.758 62.2873 111.648 66.3127 117.095 66.2389C119.984 66.2017 122.282 64.9093 123.616 63.0628H123.801V65.7216H127.284V39.1322H123.801V50.285ZM117.576 62.878C113.723 62.878 111.278 60.0716 111.278 56.6C111.278 53.1286 113.723 50.3219 117.576 50.3219C121.319 50.3219 123.764 53.1655 123.764 56.6C123.764 60.0716 121.319 62.878 117.576 62.878Z" fill="black"/>
<path d="M140.544 46.9244C134.913 46.9244 131.059 51.2452 131.059 56.6001C131.059 61.8071 134.69 66.2389 140.618 66.2389C144.916 66.2389 148.362 63.9122 149.585 60.0344H145.917C145.102 61.7704 143.138 62.878 140.767 62.878C137.432 62.878 135.061 60.6623 134.801 57.8187H149.955C150.437 51.7253 146.621 46.9244 140.544 46.9244ZM140.47 50.285C143.397 50.285 145.583 52.0946 146.139 54.7166H134.876C135.394 52.1315 137.58 50.285 140.47 50.285Z" fill="black"/>
<path d="M174.926 46.9614C172.11 46.9614 169.961 48.3278 168.776 50.5067H168.664C167.59 48.3647 165.589 46.9614 162.847 46.9614C160.402 46.9614 158.55 48.254 157.438 50.0635H157.29V47.4415H153.918V65.7217H157.438V56.3416C157.438 52.9071 159.254 50.3959 161.996 50.322C164.589 50.2482 166.108 52.0947 166.108 54.8644V65.7217H169.628V56.0462C169.628 51.9469 172.073 50.322 174.185 50.322C176.742 50.322 178.261 52.0947 178.261 54.8644V65.7217H181.78V54.4951C181.78 50.0635 179.261 46.9614 174.926 46.9614Z" fill="black"/>
<path d="M194.381 62.8042L188.083 47.4414H184.192L192.566 67.4575L192.529 67.5314C191.936 69.0453 191.269 69.5994 189.639 69.5994H185.304V73.1075H189.639C192.825 73.1075 194.529 71.6674 195.715 68.5652L203.792 47.4414H200.198L194.381 62.8042Z" fill="black"/>
</g>
<defs>
<clipPath id="clip0_80412_27">
<rect width="199" height="57.1551" fill="white" transform="translate(5 16)"/>
</clipPath>
</defs>
</svg>
